<?xml version="1.0" encoding="UTF-8"?>
<svg xmlns="http://www.w3.org/2000/svg" xmlns:xlink="http://www.w3.org/1999/xlink" viewBox="0 0 103.83 77.66">
  <defs>
    <style>
      .cls-1 {
        fill: url(#radial-gradient-6);
      }

      .cls-1, .cls-2, .cls-3, .cls-4, .cls-5 {
        mix-blend-mode: overlay;
      }

      .cls-1, .cls-5 {
        opacity: .4;
      }

      .cls-6 {
        fill: url(#linear-gradient);
      }

      .cls-2 {
        fill: url(#radial-gradient-2);
      }

      .cls-3 {
        fill: url(#radial-gradient-5);
      }

      .cls-7 {
        fill: url(#radial-gradient-3);
      }

      .cls-8 {
        fill: url(#radial-gradient-4);
      }

      .cls-4 {
        fill: url(#Degradado_sin_nombre_34-2);
        opacity: .2;
      }

      .cls-5 {
        fill: url(#Degradado_sin_nombre_34);
      }

      .cls-9 {
        fill: url(#radial-gradient);
      }

      .cls-10 {
        isolation: isolate;
      }
    </style>
    <linearGradient id="linear-gradient" x1="101.27" y1="-.86" x2="50.22" y2="56.18" gradientUnits="userSpaceOnUse">
      <stop offset="0" stop-color="#ffba24"/>
      <stop offset="1" stop-color="#f50"/>
    </linearGradient>
    <radialGradient id="radial-gradient" cx="-410.11" cy="15.24" fx="-410.11" fy="15.24" r="40.84" gradientTransform="translate(-330.41) rotate(-180) scale(1 -1)" gradientUnits="userSpaceOnUse">
      <stop offset="0" stop-color="#fff4c3"/>
      <stop offset=".16" stop-color="#ffe036"/>
      <stop offset="1" stop-color="#fa761c"/>
    </radialGradient>
    <radialGradient id="radial-gradient-2" cx="802.32" cy="-1717.36" fx="802.32" fy="-1717.36" r="6.13" gradientTransform="translate(-2023.21 -3160.32) rotate(126.03) scale(1.43 2.08) skewX(-4.38)" gradientUnits="userSpaceOnUse">
      <stop offset="0" stop-color="#fff"/>
      <stop offset=".1" stop-color="#fff" stop-opacity=".85"/>
      <stop offset=".29" stop-color="#fff" stop-opacity=".59"/>
      <stop offset=".47" stop-color="#fff" stop-opacity=".38"/>
      <stop offset=".63" stop-color="#fff" stop-opacity=".22"/>
      <stop offset=".78" stop-color="#fff" stop-opacity=".1"/>
      <stop offset=".91" stop-color="#fff" stop-opacity=".03"/>
      <stop offset="1" stop-color="#fff" stop-opacity="0"/>
    </radialGradient>
    <radialGradient id="Degradado_sin_nombre_34" data-name="Degradado sin nombre 34" cx="-3178.7" cy="3441.2" fx="-3178.7" fy="3441.2" r="5.92" gradientTransform="translate(-4425.73 -952.56) rotate(-136.79) scale(1.61 .68) skewX(11.83)" gradientUnits="userSpaceOnUse">
      <stop offset="0" stop-color="#fff"/>
      <stop offset=".1" stop-color="#fff" stop-opacity=".85"/>
      <stop offset=".29" stop-color="#fff" stop-opacity=".59"/>
      <stop offset=".47" stop-color="#fff" stop-opacity=".38"/>
      <stop offset=".63" stop-color="#fff" stop-opacity=".22"/>
      <stop offset=".78" stop-color="#fff" stop-opacity=".1"/>
      <stop offset=".91" stop-color="#fff" stop-opacity=".03"/>
      <stop offset="1" stop-color="#fff" stop-opacity="0"/>
    </radialGradient>
    <radialGradient id="radial-gradient-3" cx="57.67" cy="26.07" fx="57.67" fy="26.07" r="70.26" gradientTransform="translate(115.34 45.12) rotate(-180) scale(1 .73)" gradientUnits="userSpaceOnUse">
      <stop offset="0" stop-color="#fff"/>
      <stop offset=".2" stop-color="#d5f3ff"/>
      <stop offset="1" stop-color="#85bcf1"/>
    </radialGradient>
    <radialGradient id="radial-gradient-4" cx="67.63" cy="31.96" fx="67.63" fy="31.96" r="59.73" gradientUnits="userSpaceOnUse">
      <stop offset="0" stop-color="#ffe036"/>
      <stop offset=".08" stop-color="#fecb30" stop-opacity=".81"/>
      <stop offset=".18" stop-color="#fcb52b" stop-opacity=".6"/>
      <stop offset=".28" stop-color="#fca126" stop-opacity=".41"/>
      <stop offset=".38" stop-color="#fb9122" stop-opacity=".26"/>
      <stop offset=".48" stop-color="#fa851f" stop-opacity=".15"/>
      <stop offset=".58" stop-color="#fa7c1d" stop-opacity=".07"/>
      <stop offset=".68" stop-color="#fa771c" stop-opacity=".02"/>
      <stop offset=".77" stop-color="#fa761c" stop-opacity="0"/>
    </radialGradient>
    <radialGradient id="radial-gradient-5" cx="821.45" cy="-1708.72" fx="821.45" fy="-1708.72" r="8.48" xlink:href="#radial-gradient-2"/>
    <radialGradient id="radial-gradient-6" cx="821.19" cy="-1724.38" fx="821.19" fy="-1724.38" r="6.66" xlink:href="#radial-gradient-2"/>
    <radialGradient id="Degradado_sin_nombre_34-2" data-name="Degradado sin nombre 34" cx="10.94" cy="63.82" fx="10.94" fy="63.82" r="4.87" gradientTransform="translate(-79.51 -98.83) rotate(-25.71) scale(1 2.91)" xlink:href="#Degradado_sin_nombre_34"/>
  </defs>
  <g class="cls-10">
    <g id="Layer_2" data-name="Layer 2">
      <g id="OBJECTS">
        <g>
          <g>
            <polygon class="cls-6" points="97.51 46.83 91.15 47.25 89.95 53.52 83.82 51.73 80.56 57.21 75.41 53.44 70.47 57.47 66.92 52.17 60.9 54.26 59.38 48.06 53.01 47.97 53.7 41.63 47.74 39.36 50.56 33.64 45.74 29.47 50.34 25.06 47.24 19.5 53.07 16.93 52.06 10.63 58.42 10.21 59.62 3.95 65.74 5.73 69.01 .26 74.15 4.03 79.1 0 82.64 5.3 88.66 3.21 90.18 9.4 96.56 9.49 95.86 15.83 101.82 18.1 99 23.82 103.83 27.99 99.22 32.4 102.33 37.97 96.49 40.54 97.51 46.83"/>
            <circle class="cls-9" cx="74.78" cy="28.73" r="21.51"/>
            <g>
              <path class="cls-2" d="M78.06,26.52c-5.48-4.45-7.62-11.21-4.78-15.12,2.84-3.91,9.59-3.47,15.07,.97,5.48,4.45,7.62,11.21,4.78,15.12-2.84,3.91-9.59,3.47-15.07-.97Z"/>
              <path class="cls-5" d="M55.77,33.49c.73-2.38,4.41-1.39,8.24,2.2,3.83,3.6,6.34,8.44,5.62,10.82-.72,2.38-4.41,1.39-8.25-2.2-3.83-3.6-6.34-8.44-5.62-10.82Z"/>
            </g>
          </g>
          <g>
            <path class="cls-7" d="M73,37.44c-.96-14.05-12.65-25.15-26.94-25.15s-25.98,11.1-26.94,25.15C8.47,37.97,0,46.77,0,57.54s9.01,20.12,20.12,20.12h51.86c11.11,0,20.12-9.01,20.12-20.12s-8.47-19.57-19.11-20.1Z"/>
            <path class="cls-8" d="M73,37.44c-.96-14.05-12.65-25.15-26.94-25.15s-25.98,11.1-26.94,25.15C8.47,37.97,0,46.77,0,57.54s9.01,20.12,20.12,20.12h51.86c11.11,0,20.12-9.01,20.12-20.12s-8.47-19.57-19.11-20.1Z"/>
            <path class="cls-3" d="M46.06,39.95c-7.58-6.15-10.54-15.5-6.61-20.9,3.93-5.4,13.26-4.8,20.83,1.35,7.57,6.15,10.53,15.51,6.6,20.9-3.93,5.4-13.26,4.79-20.83-1.35Z"/>
            <path class="cls-1" d="M73.14,58.11c-5.95-4.83-8.28-12.19-5.19-16.43,3.09-4.24,10.42-3.77,16.37,1.06,5.95,4.83,8.27,12.19,5.19,16.43-3.09,4.25-10.42,3.77-16.37-1.06Z"/>
            <path class="cls-4" d="M14.39,58.79c-4.39-6.85-9.5-10.15-11.41-7.37-1.9,2.78,.11,10.59,4.5,17.45,4.4,6.85,9.5,10.15,11.41,7.37,1.9-2.79-.11-10.59-4.5-17.45Z"/>
          </g>
        </g>
      </g>
    </g>
  </g>
</svg>